<svg xmlns="http://www.w3.org/2000/svg" width="26" height="22"><path fill="#fff" d="M4 13.5a1.5 1.5 0 103 0 1.5 1.5 0 00-3 0zm15 0a1.5 1.5 0 103 0 1.5 1.5 0 00-3 0zm5 4.5h-4.884l-1.45-2.42c-.305-.508-.792-.808-1.31-.808H9.708c-.534 0-1.034.318-1.335.85L7.029 18H2v-5.726C2 10.469 3.409 9 5.14 9h15.72C22.59 9 24 10.448 24 12.228zM9.18 2h7.643c1.283 0 2.475.873 3.033 2.217L21 7H5l1.144-2.778C6.705 2.872 7.896 2 9.18 2zm15.335 6.344l-2.796-5.24C20.688 1.19 18.658 0 16.421 0H9.576C7.342 0 5.313 1.188 4.278 3.106l-2.775 5.19a1.583 1.583 0 00-.074.162A5.501 5.501 0 000 12.147v8.32C0 21.314.661 22 1.477 22h1.906c.816 0 1.477-.686 1.477-1.533V19.7h16.28v.767c0 .847.66 1.533 1.477 1.533h1.906c.816 0 1.477-.686 1.477-1.533v-8.355c0-1.39-.516-2.693-1.46-3.714-.008-.018-.016-.037-.025-.054z"/></svg>