<svg xmlns="http://www.w3.org/2000/svg" width="23" height="24"><path fill="#fff" d="M16.259 20a4.327 4.327 0 003.09-1.325 4.54 4.54 0 001.272-3.176C20.62 13.014 16.259 8 16.259 8s-4.362 5.014-4.362 7.5a4.54 4.54 0 001.27 3.175 4.326 4.326 0 003.092 1.324zm-3.263 2c-1.992-1.094-3.156-3.843-3.156-6.285 0-2.011 1.607-5.102 3.16-7.16V6.841L11.306 6H7.132L2 8.996V22zM8 2v2h3V2zm15 13.36c0 3.352-3.242 6.69-6.504 6.69a5.694 5.694 0 01-1.556-.241v.91a1.29 1.29 0 01-.363.904c-.233.24-.55.376-.882.377H1.245a1.237 1.237 0 01-.882-.377A1.29 1.29 0 010 22.72V8c0-.387.173-.753.467-.996L6.361 4V1.168a1.29 1.29 0 01.363-.903C6.957.025 7.139 0 7.47 0h3.735c.332.001.649.137.882.377.234.24.364.565.363.903v2.03l2.126 1.385a1.3 1.3 0 01.364.905v1.041c.272-.33 1.203-1.17 1.556-1.17.354 0 6.504 6.9 6.504 9.889zM7.25 9c.432.023.767.47.75 1v6c.017.529-.318.977-.75 1h-1.5c-.432-.023-.767-.471-.75-1v-6c-.017-.529.318-.977.75-1z"/></svg>