<svg xmlns="http://www.w3.org/2000/svg" width="24" height="22"><path fill="#fff" d="M20 2h-3v2h-2V.97c-.016-.518.378-.952.88-.97h5.24c.502.018.896.452.88.97V4h-2zm-5 3.03V4H9v1.03c.016.518-.378.953-.88.97h7.76c-.502-.017-.896-.452-.88-.97zm7 0c.016.518-.378.953-.88.97H22v14H2V6h.879c-.502-.018-.895-.452-.879-.97V4H.74a.7.7 0 00-.524.244.888.888 0 00-.216.59v16.333c0 .22.077.433.216.589A.7.7 0 00.74 22h22.523a.7.7 0 00.522-.244.888.888 0 00.216-.589V4.833a.888.888 0 00-.216-.589.7.7 0 00-.522-.244H22zM7 2H4v2H2V.97c-.016-.518.378-.952.88-.97h5.24c.502.018.896.452.88.97V4H7zM5 13a1 1 0 001 1h4a1 1 0 000-2H6a1 1 0 00-1 1zm8 0a1 1 0 001 1h1v1a1 1 0 001 1h.4a1 1 0 001-1v-1h.6a1 1 0 000-2h-.6v-1a1 1 0 00-1-1H16a1 1 0 00-1 1v1h-1a1 1 0 00-1 1z"/></svg>