<svg xmlns="http://www.w3.org/2000/svg" width="24" height="24"><path fill="#fff" d="M24 9.084c-3.235 3.363-7.06 10.644-7.06 10.644s-2.396-1.413-4.808-1.464l.69 1.91-2.255.826-.86-2.38c-1.504.433-2.649 1.108-2.649 1.108S3.232 12.444 0 9.084c1.498-1.56 3.109-2.844 4.897-3.775L4 2.827 6.255 2l.857 2.371c1.499-.494 3.118-.76 4.888-.76 4.966 0 8.75 2.088 12 5.473zm-12 6.815c1.956 0 3.874 1.411 3.874 1.411s2.449-5.324 4.926-8.034c-2.51-2.105-5.573-3.247-8.8-3.247-1.395 0-2.76.214-4.063.626l3.361 9.3c.231-.035.466-.056.702-.056zM8.123 17.31s.353-.259.91-.555L5.718 7.582A14.215 14.215 0 003.2 9.276c2.498 2.732 4.923 8.034 4.923 8.034z"/></svg>