<svg xmlns="http://www.w3.org/2000/svg" width="40" height="40"><path fill="#fff" d="M6.031 14.574a15.08 15.08 0 017.302-7.907v8H6zm20.38 18.505a14.483 14.483 0 01-8.658 1.353 14.474 14.474 0 01-7.8-3.858 14.514 14.514 0 01-4.541-10.099h8.192V30.63h5.498V0c-.827.081-1.647.143-2.466.28a19.757 19.757 0 00-6.682 2.402A20.237 20.237 0 000 19.154v1.793c.03.698.098 1.394.205 2.084a20.12 20.12 0 009.749 14.256A19.763 19.763 0 0019.96 40h.202a19.751 19.751 0 009.886-2.713 20.116 20.116 0 009.749-14.253c.106-.692.173-1.388.202-2.087v-1.793a20.226 20.226 0 00-9.95-16.47A19.704 19.704 0 0023.366.282C22.545.146 21.725.084 20.897 0v30.63h5.513V6.907h.014c.21.106.418.218.62.333a14.587 14.587 0 017.55 12.764 14.612 14.612 0 01-8.192 13.098z"/></svg>