<svg xmlns="http://www.w3.org/2000/svg" width="366" height="100"><path fill="#fff" d="M66 82.755A36.53 36.53 0 0086.485 50 36.464 36.464 0 0067.61 18.1a36.26 36.26 0 00-1.55-.834H66v59.31H52.244V0c2.07.21 4.117.365 6.172.701 5.887.975 11.584 3.012 16.707 6.01A50.564 50.564 0 01100 47.887v4.48a47.37 47.37 0 01-.505 5.219 50.291 50.291 0 01-24.372 35.633C67.625 97.615 59.099 100 50.407 100h-.505a49.469 49.469 0 01-25.018-6.782A50.298 50.298 0 01.512 57.578 47.128 47.128 0 010 52.367v-4.481A50.592 50.592 0 0124.884 6.705C30 3.71 35.705 1.677 41.591.7c2.048-.342 4.096-.497 6.165-.7v76.576H34V51.19H13.53a36.285 36.285 0 0011.354 25.247 36.022 36.022 0 0019.498 9.643C51.772 87.214 59.334 86 66 82.699zM15 36.667h18.333v-20a38.575 38.575 0 00-9.16 6.384 37.702 37.702 0 00-9.095 13.385zm347.447-5.762a6.481 6.481 0 012.616 2.592A7.12 7.12 0 01366 37a7.03 7.03 0 01-.926 3.474 6.498 6.498 0 01-2.587 2.598 7.012 7.012 0 01-6.968 0 6.51 6.51 0 01-2.593-2.598A7 7 0 01352 37c0-1.218.325-2.43.937-3.503a6.463 6.463 0 012.622-2.592A7.086 7.086 0 01359 30c1.205 0 2.391.317 3.447.905zm-3.447.247c-1 .009-2 .27-2.878.76a5.49 5.49 0 00-2.184 2.167A6.063 6.063 0 00353.15 37a6 6 0 00.776 2.892 5.503 5.503 0 002.168 2.172 6.03 6.03 0 002.906.772c1-.008 2-.274 2.872-.772A5.202 5.202 0 00364 39.892a5.726 5.726 0 00.804-2.892c-.005-1-.274-2-.804-2.921a5.214 5.214 0 00-2.168-2.166C361 31.43 360 31.17 359 31.158zm-3.073 9.743v-7.548h2.587a6.363 6.363 0 011.92.208c.387.132.72.387.95.726.226.326.349.719.35 1.112a1.996 1.996 0 01-.575 1.44 2.298 2.298 0 01-1.564.686c.237.094.456.23.644.403.423.46.761.961 1.115 1.498l.915 1.475h-1.484l-.667-1.193a5.6 5.6 0 00-1.27-1.702 1.408 1.408 0 00-.978-.286h-.713v3.204zm1.213-4.246h1.478a2.411 2.411 0 001.443-.317c.252-.205.395-.516.385-.841a1.016 1.016 0 00-.19-.577c-.128-.178-.256-.315-.511-.391a3.838 3.838 0 00-1.225-.133h-1.38zM136.735 65.48h-10.286l-.78-4.98h-9.215l-3.168 4.98H103L122.121 37h9.22zm-11.218-10.773l-1.165-8.023-5.044 8.023zm37.556 5.026a5.955 5.955 0 01-1.165 2.544 11.535 11.535 0 01-2.44 2.029c-.778.441-1.607.788-2.468 1.031-.918.152-1.846.227-2.775.224l-1.071-.04h-15.318l4.962-20.723h14.695c2.912 0 4.88.447 5.9 1.347a3.676 3.676 0 011.118 2.757l-.128 1.346a5.874 5.874 0 01-2.33 3.485l-.419.355-.874.447c.718.303 1.334.8 1.777 1.464.463.63.712 1.42.699 2.226V59zm-8.02-8.682c-.053-.235-.105-.46-.24-.654l-.174-.04-.5-.149-1.48-.04h-1.992l-.524 2.149h1.98c.798.07 1.6-.065 2.33-.39.253-.15.448-.38.547-.653zm-.996 7.553c-.057-.295-.181-.605-.402-.768a1.799 1.799 0 00-.78-.224l-1.294-.074h-2.679l-.617 2.601H151c.753.017 1.533-.14 2.27-.372.262-.086.495-.396.73-.917zm36.285-8.247H183l-3.66 15.118h-9.162l3.635-15.118h-7.356l1.357-5.564h23.88zm26.996 4.75c-.757 3.313-2.338 5.808-4.618 7.485a21.679 21.679 0 01-5.33 2.728 18.919 18.919 0 01-6.063.888L200 66.17h-.45l-.82-.169-2.231-.335a10.217 10.217 0 01-5.201-3.112 6.122 6.122 0 01-1.298-4.07v-.768c0-.27 0-.538.092-.802.037-.613.15-1.22.338-1.805.757-3.412 2.242-5.905 4.455-7.479a21.891 21.891 0 013.344-1.885c.53-.246 1.083-.458 1.654-.665.57-.206 1.117-.407 1.747-.573l2.37-.355 2.26-.152 2.493.152 2.247.355c2.077.493 3.941 1.55 5.342 3.112a6.237 6.237 0 011.41 4.292v1.032l-.082.47a3.6 3.6 0 01-.128.957zM207.903 55l.233-1.106.081-.974-.081-.654a1.595 1.595 0 00-.233-.842 3.112 3.112 0 00-.472-.997c-.32-.539-1.083-.808-2.295-.808a4.122 4.122 0 00-2.737.854 6.833 6.833 0 00-.955.917l-.338.47-.437.727-.582 1.261-.35 1.272a9.998 9.998 0 00-.384 2.459v.487c-.001.154.012.307.04.458.055.21.157.406.298.573.309.465.692.903 1.164 1.147.49.287 1.056.423 1.625.39a4.04 4.04 0 002.685-.849l.91-.911.867-1.204.227-.447.338-.934zM249 65.562h-9.86l5.13-21.508H238l-2.239 8.373-.699 2.453-.425 1.33-.734 1.575a11.43 11.43 0 01-1.903 2.75c-.8.945-1.743 1.8-2.768 2.551-2.043 1.708-5.058 2.563-9.045 2.567l-1.748-.04a10.552 10.552 0 01-2.33-.263l1.649-6.877 2.51.149c1.942 0 3.336-.686 4.182-2.058.492-.843.93-1.716 1.31-2.564.146-.415.24-.788.402-1.155.237-.684.476-1.406.717-2.166L230.373 37h25.517zm19.93-23.725h-9.784L260.31 37h9.779zm-5.789 23.644h-9.552l4.957-20.682h9.575zm36.356-5.3l-2.912 10.681h-8.154l1.205-5.002h-14.782l-1.2 5.002h-8.282l2.178-10.681h3.338L272.833 58l.821-1.27.81-1.42a30.552 30.552 0 002.207-6.052l1.084-4.459h21.841l-3.722 15.382zm-12.883 0L289 50.479h-4l-.285 1.146-1.037 3.146c-.22.681-.486 1.348-.798 1.994a19.73 19.73 0 01-1.252 2.143l-1.037 1.295zm24.322-3.41l-.04.43v.412l.04 1.089c.064.4.21.774.49 1.066.378.71 1.234 1.066 2.574 1.066l1.147-.11c.405-.11.784-.294 1.119-.543a4.461 4.461 0 001.438-1.41H327l-.338.773c-.102.28-.254.54-.448.768l-.92 1.18c-.57.717-1.294 1.337-2.028 1.835l-2.591 1.427a13.81 13.81 0 01-3.594 1.031c-.734.115-1.468.215-2.22.215-.75.1-1.52.14-2.329.14h-1.357l-1.369-.034h-.681c-.18-.023-.355-.106-.524-.106a7.756 7.756 0 01-2.43-.868A9.185 9.185 0 01302.247 62a6.923 6.923 0 01-.833-3.504v-.774c0-.27.028-.538.082-.802a7.28 7.28 0 01.338-1.8c.717-3.235 2.655-6.12 5.422-7.965 2.866-2.014 6.425-3.02 10.676-3.02 1.069-.01 2.069.042 3.069.154.824.08 1.606.251 2.36.51 1.456.44 2.74 1.31 3.64 2.493a5.52 5.52 0 01.938 2.293l.302 1.61c.036.275.076.539.105.805.03.226.041.456.041.65a19.67 19.67 0 01-.524 4.12zm8.568-4.252v-.849l-.087-.28a3.274 3.274 0 00-.268-.883c-.297-.682-1.149-1.031-2.458-1.031a4.716 4.716 0 00-2.592.733 5.887 5.887 0 00-1.608 1.542l-.491.768zm38.883 3.031a14.769 14.769 0 01-1.607 4.212 16.384 16.384 0 01-3.052 3.605c-2.528 2.292-5.91 3.448-10.146 3.467h-1.456a6.047 6.047 0 01-1.126-.08 1.825 1.825 0 01-.65-.086l-.863-.235L337.874 73H327l6.791-28.28h10.484l-.384 1.575 1.654-.47a18.521 18.521 0 013.063-.298h1.602c2.376 0 3.984.155 4.79.473.921.358 1.74.893 2.432 1.567a5.487 5.487 0 011.2 1.794 6.41 6.41 0 01.368 2.195v1.094l-.187.768zm-9.948-.092l.175-.922.041-.728-.128-1.066a1.83 1.83 0 00-.527-.963c-.422-.779-1.255-1.232-2.45-1.232a4.844 4.844 0 00-2.912 1.232l-.582.642-.582.75-.292.637-.32 1.009-.291 1.535-.123 1.41c-.001.444.115.88.338 1.238.214.425.51.777.862 1.066a2.84 2.84 0 001.567.355A4.342 4.342 0 00346.378 59l.622-.693.595-.883c.405-.619.652-1.279.856-1.966z"/></svg>