<svg xmlns="http://www.w3.org/2000/svg" width="24" height="22"><path fill="#fff" d="M19.617 12.481l-.605.653.086.854.195 1.959-2.053.432-.907.19-.476.744L14.787 19l-1.923-.773-.864-.342-.854.342L9.223 19l-1.07-1.677-.475-.744-.907-.19-2.053-.432.194-1.969.087-.854-.605-.653L3 11.005l1.394-1.486.605-.653-.097-.864-.195-1.949 2.053-.432.907-.19.476-.744L9.213 3l1.923.773.864.342.854-.342L14.777 3l1.07 1.687.475.744.907.19 2.053.432-.194 1.959-.087.854.605.653L21 10.995zM24 10.99l-2.662-2.923.371-3.866-3.938-.86L15.709 0 12 1.53 8.29 0 6.23 3.342l-3.94.848.372 3.877L0 10.99l2.662 2.922-.371 3.877 3.938.859L8.291 22 12 20.46l3.71 1.53 2.06-3.342 3.94-.86-.372-3.865z"/><path fill="#fff" d="M16 8.515L9.515 15 8.1 13.586 14.586 7.1zM11 8.5a1.5 1.5 0 11-3 0 1.5 1.5 0 013 0zm5 5a1.5 1.5 0 11-3 0 1.5 1.5 0 013 0z"/></svg>