<svg xmlns="http://www.w3.org/2000/svg" width="22" height="22"><path fill="#fff" d="M17.588 17.6c-1.206 0-2.183.99-2.183 2.2 0 1.21.977 2.2 2.184 2.2 1.206 0 2.194-.99 2.194-2.2 0-1.21-.988-2.2-2.195-2.2zm-10.99 0c-1.21 0-2.189.99-2.189 2.2 0 1.21.979 2.2 2.189 2.2s2.199-.99 2.199-2.2c0-1.21-.99-2.2-2.2-2.2zM5.674 4.4h13.36l-3.035 5.5H8.28zm10.325 7.7c.825 0 1.55-.451 1.924-1.133l3.937-7.139a1.096 1.096 0 00-.957-1.628H4.63L3.596 0H0v2.2h2.2l3.958 8.349-1.485 2.684c-.802 1.474.253 3.267 1.925 3.267h13.195v-2.2H6.598l1.21-2.2z"/></svg>