<svg xmlns="http://www.w3.org/2000/svg" width="18" height="18"><path fill="#fff" d="M16 14.46c-.88-.06-1.75-.21-2.6-.45l-1.2 1.2c1.2.41 2.48.67 3.8.76zM2.03 2c.09 1.32.35 2.58.75 3.79l1.2-1.21c-.23-.83-.38-1.7-.45-2.58zM18 13.5V17c0 .55-.45 1-1 1C7.61 18 0 10.39 0 1c0-.55.45-1 1-1h3.5c.55 0 1 .45 1 1 0 1.25.2 2.45.57 3.57.11.35.03.74-.25 1l-2.2 2.21c1.44 2.84 3.76 5.15 6.59 6.59l2.2-2.2c.2-.19.45-.29.71-.29.1 0 .21.02.31.05 1.12.37 2.32.57 3.57.57.55 0 1 .45 1 1zM9 2V0a9 9 0 019 9h-2c0-3.87-3.13-7-7-7zm0 4V4c2.76 0 5 2.24 5 5h-2c0-1.66-1.34-3-3-3z"/></svg>