<svg xmlns="http://www.w3.org/2000/svg" width="24" height="24"><path fill="#fff" d="M12.89 11.1c-1.78-.59-2.64-.96-2.64-1.9 0-1.02 1.11-1.39 1.81-1.39 1.31 0 1.79.99 1.9 1.34l1.58-.67c-.15-.44-.82-1.91-2.66-2.23V5h-1.75v1.26c-2.6.56-2.62 2.85-2.62 2.96 0 2.27 2.25 2.91 3.35 3.31 1.58.56 2.28 1.07 2.28 2.03 0 1.13-1.05 1.61-1.98 1.61-1.82 0-2.34-1.87-2.4-2.09l-1.66.67c.63 2.19 2.28 2.78 3.02 2.96V19h1.75v-1.24c.52-.09 3.02-.59 3.02-3.22.01-1.39-.6-2.61-3-3.44zM12 21c-4.961 0-9-4.039-9-9s4.039-9 9-9 9 4.039 9 9-4.039 9-9 9zm0-20C5.928 1 1 5.928 1 12s4.928 11 11 11 11-4.928 11-11S18.072 1 12 1z"/></svg>