<svg xmlns="http://www.w3.org/2000/svg" width="16" height="16"><path fill="#0a2352" d="M11 8.522a2.615 2.615 0 01-.492 1.248L9.75 9c.089-.14.158-.304.25-.478zm0-1.044h-1c-.092-.174-.161-.338-.25-.478l.758-.77c.259.365.44.77.492 1.248zM16 8a7.948 7.948 0 01-2.343 5.657A7.948 7.948 0 018 16a7.948 7.948 0 01-5.657-2.343A7.948 7.948 0 010 8c0-2.137.832-4.146 2.343-5.657A7.948 7.948 0 018 0c2.137 0 4.146.832 5.657 2.343A7.948 7.948 0 0116 8zm-3.885 0A4.12 4.12 0 008 3.885 4.12 4.12 0 003.885 8 4.12 4.12 0 008 12.115 4.12 4.12 0 0012.115 8zM9.77 10.508c-.365.259-.77.44-1.248.492v-1c.174-.092.338-.161.478-.25zM7.478 10v1a2.614 2.614 0 01-1.248-.492L7 9.75c.14.089.304.158.478.25zm0-5v1c-.174.092-.338.161-.478.25l-.77-.758c.365-.259.77-.44 1.248-.492zm2.292.492L9 6.25c-.14-.089-.304-.158-.478-.25V5c.478.052.883.233 1.248.492zM6.25 7c-.089.14-.158.304-.25.478H5c.052-.478.233-.883.492-1.248zm0 2l-.758.77A2.614 2.614 0 015 8.522h1c.092.174.161.338.25.478zm.813-1.375a.937.937 0 111.871.08C9 7.797 9 7.896 9 8a.98.98 0 01-.308.692A.98.98 0 018 9a.98.98 0 01-.692-.308A.98.98 0 017 8c0-.103 0-.202.066-.296a.95.95 0 01-.003-.079z"/></svg>