<svg xmlns="http://www.w3.org/2000/svg" width="16" height="14"><path fill="#0a2352" d="M13.171 6.926a.547.547 0 01-.535.455H2.538a.554.554 0 01-.47-.26C2 7 2 6.754 2 6.583l2.329-4.656a.51.51 0 01.455-.287l8.708-.016c.162 0 .316.072.42.197.088.124.147.288.088.448zm-2.954 2.936h-1.93a.593.593 0 01-.571-.572c0-.29.284-.57.571-.57h1.93c.315 0 .57.28.572.57a.574.574 0 01-.572.572zM15.75.306A.925.925 0 0015.066 0H3.905a.917.917 0 00-.813.523L.103 6.812C0 6.93 0 7.062 0 7.194l.547 5.31a.964.964 0 00.97.882h12.378a.974.974 0 00.97-.882L16 1c0-.25-.079-.504-.25-.694z"/></svg>